<?xml version="1.0" encoding="UTF-8" standalone="no"?>
<!-- Created with Inkscape (http://www.inkscape.org/) -->

<svg
   width="210mm"
   height="297mm"
   viewBox="0 0 210 297"
   version="1.1"
   id="svg5"
   inkscape:version="1.1 (c68e22c387, 2021-05-23)"
   sodipodi:docname="graf-rakastrack.svg"
   xmlns:inkscape="http://www.inkscape.org/namespaces/inkscape"
   xmlns:sodipodi="http://sodipodi.sourceforge.net/DTD/sodipodi-0.dtd"
   xmlns:xlink="http://www.w3.org/1999/xlink"
   xmlns="http://www.w3.org/2000/svg"
   xmlns:svg="http://www.w3.org/2000/svg">
  <sodipodi:namedview
     id="namedview7"
     pagecolor="#ffffff"
     bordercolor="#666666"
     borderopacity="1.0"
     inkscape:pageshadow="2"
     inkscape:pageopacity="0.0"
     inkscape:pagecheckerboard="0"
     inkscape:document-units="mm"
     showgrid="false"
     inkscape:snap-page="true"
     inkscape:snap-text-baseline="true"
     inkscape:snap-center="true"
     inkscape:snap-object-midpoints="true"
     inkscape:snap-midpoints="true"
     inkscape:snap-smooth-nodes="true"
     inkscape:snap-intersection-paths="true"
     inkscape:object-paths="true"
     inkscape:snap-bbox="true"
     inkscape:bbox-nodes="true"
     inkscape:bbox-paths="true"
     inkscape:snap-bbox-edge-midpoints="true"
     inkscape:snap-bbox-midpoints="true"
     inkscape:zoom="0.50033449"
     inkscape:cx="746.5006"
     inkscape:cy="366.75465"
     inkscape:window-width="1920"
     inkscape:window-height="1001"
     inkscape:window-x="-9"
     inkscape:window-y="-9"
     inkscape:window-maximized="1"
     inkscape:current-layer="layer1" />
  <defs
     id="defs2">
    <linearGradient
       inkscape:collect="always"
       id="linearGradient7590">
      <stop
         style="stop-color:#e10014;stop-opacity:1;"
         offset="0"
         id="stop7586" />
      <stop
         style="stop-color:#fb2b77;stop-opacity:1"
         offset="0.85063761"
         id="stop7820" />
      <stop
         style="stop-color:#e10014;stop-opacity:0;"
         offset="1"
         id="stop7588" />
    </linearGradient>
    <linearGradient
       inkscape:collect="always"
       xlink:href="#linearGradient7590"
       id="linearGradient7592"
       x1="394.89648"
       y1="893.43164"
       x2="394.18939"
       y2="-29.731527"
       gradientUnits="userSpaceOnUse" />
  </defs>
  <g
     inkscape:label="Lager 1"
     inkscape:groupmode="layer"
     id="layer1">
    <path
       id="path589"
       style="fill:url(#linearGradient7592);fill-rule:evenodd;stroke-width:1.40606;fill-opacity:1"
       d="M 394.89453 108.1543 L 394.89453 175.1875 L 612.81055 175.1875 A 392.63908 392.63908 0 0 0 394.89648 108.1543 A 392.63908 392.63908 0 0 0 394.89453 108.1543 z M 499.25391 192.82617 A 325.19061 325.19061 0 0 1 499.5293 192.91797 A 325.19061 325.19061 0 0 1 514.36133 198.36914 A 325.19061 325.19061 0 0 1 515.83203 198.94531 A 325.19061 325.19061 0 0 1 530.7207 205.34961 A 325.19061 325.19061 0 0 1 531.81445 205.84375 A 325.19061 325.19061 0 0 1 546.80078 213.27539 A 325.19061 325.19061 0 0 1 547.38867 213.57812 A 325.19061 325.19061 0 0 1 562.47852 222.11133 A 325.19061 325.19061 0 0 1 562.72461 222.26367 A 325.19061 325.19061 0 0 1 577.09375 231.44727 A 325.19061 325.19061 0 0 1 577.97461 232.05859 A 325.19061 325.19061 0 0 1 591.18945 241.54883 A 325.19061 325.19061 0 0 1 592.48633 242.54688 A 325.19061 325.19061 0 0 1 604.81445 252.45898 A 325.19061 325.19061 0 0 1 606.1875 253.63477 A 325.19061 325.19061 0 0 1 613.51758 260.20898 L 704.71875 260.20898 A 392.63908 392.63908 0 0 0 637.95117 192.82617 L 499.25391 192.82617 z M 631.59961 277.84766 A 325.19061 325.19061 0 0 1 631.60156 277.84961 A 325.19061 325.19061 0 0 1 642.03711 289.48242 A 325.19061 325.19061 0 0 1 643.23633 290.88281 A 325.19061 325.19061 0 0 1 653.18359 303.25781 A 325.19061 325.19061 0 0 1 654.11328 304.46484 A 325.19061 325.19061 0 0 1 663.63477 317.7168 A 325.19061 325.19061 0 0 1 664.24023 318.5957 A 325.19061 325.19061 0 0 1 673.42578 332.9668 A 325.19061 325.19061 0 0 1 673.57617 333.21094 A 325.19061 325.19061 0 0 1 679.09961 342.98047 L 753.99023 342.98047 A 392.63908 392.63908 0 0 0 717.66992 277.84766 L 631.59961 277.84766 z M 688.23047 360.61914 A 325.19061 325.19061 0 0 1 689.83398 363.84961 A 325.19061 325.19061 0 0 1 690.36719 365.0293 A 325.19061 325.19061 0 0 1 696.72266 379.80469 A 325.19061 325.19061 0 0 1 697.34961 381.4082 A 325.19061 325.19061 0 0 1 702.76953 396.1582 A 325.19061 325.19061 0 0 1 703.38281 397.99609 A 325.19061 325.19061 0 0 1 707.94531 412.86133 A 325.19061 325.19061 0 0 1 708.47656 414.7793 A 325.19061 325.19061 0 0 1 709.69727 419.6875 L 778.85156 419.6875 A 392.63908 392.63908 0 0 0 761.2793 360.61914 L 688.23047 360.61914 z M 713.7207 437.32617 A 325.19061 325.19061 0 0 1 715.60156 447.13477 A 325.19061 325.19061 0 0 1 715.90234 448.9082 A 325.19061 325.19061 0 0 1 718.06055 464.75977 A 325.19061 325.19061 0 0 1 718.2207 466.125 A 325.19061 325.19061 0 0 1 719.55664 482.54492 A 325.19061 325.19061 0 0 1 719.61719 483.47852 A 325.19061 325.19061 0 0 1 719.84766 491.97266 L 787.26562 491.97266 A 392.63908 392.63908 0 0 0 782.15234 437.32617 L 713.7207 437.32617 z M 719.85352 509.61133 A 325.19061 325.19061 0 0 1 716.08984 551.5625 A 325.19061 325.19061 0 0 1 716.05078 551.79297 A 325.19061 325.19061 0 0 1 713.32227 566.48242 L 781.68164 566.48242 A 392.63908 392.63908 0 0 0 787.2793 509.61133 L 719.85352 509.61133 z M 709.19531 584.12109 A 325.19061 325.19061 0 0 1 704.2168 601.08594 A 325.19061 325.19061 0 0 1 704.07617 601.50977 A 325.19061 325.19061 0 0 1 688.49609 640.30469 L 761.45312 640.30469 A 392.63908 392.63908 0 0 0 778.28516 584.12109 L 709.19531 584.12109 z M 679.45117 657.94336 A 325.19061 325.19061 0 0 1 658.14844 691.66016 A 325.19061 325.19061 0 0 1 657.75586 692.19727 A 325.19061 325.19061 0 0 1 630.84375 724.375 L 717 724.375 A 392.63908 392.63908 0 0 0 754.23828 657.94336 L 679.45117 657.94336 z M 612.91406 742.01367 A 325.19061 325.19061 0 0 1 586.28711 763.66211 A 325.19061 325.19061 0 0 1 585.77344 764.03906 A 325.19061 325.19061 0 0 1 542.7793 790.38672 A 325.19061 325.19061 0 0 1 542.29102 790.63672 A 325.19061 325.19061 0 0 1 495.60938 809.97461 A 325.19061 325.19061 0 0 1 495.19141 810.11523 L 635.84375 810.11523 A 392.63908 392.63908 0 0 0 704.04102 742.01367 L 612.91406 742.01367 z M 394.89453 827.75391 L 394.89453 893.43164 A 392.63908 392.63908 0 0 0 394.89648 893.43164 A 392.63908 392.63908 0 0 0 611.39258 827.75391 L 394.89453 827.75391 z "
       transform="scale(0.26458333)" />
    <path
       id="path589-7-5-0"
       style="fill:#00ff00;fill-rule:evenodd;stroke-width:1.10285"
       d="M 394.89648 192.82617 L 394.89648 259.57422 A 241.2178 241.2178 0 0 1 412.28711 260.20898 L 587.14062 260.20898 A 307.96641 307.96641 0 0 0 394.89648 192.82617 z M 486.5918 277.84766 A 241.2178 241.2178 0 0 1 565.46289 330.22656 A 241.2178 241.2178 0 0 1 577.31836 342.98047 L 659.18945 342.98047 A 307.96641 307.96641 0 0 0 607.34375 277.84766 L 486.5918 277.84766 z M 591.18359 360.61914 A 241.2178 241.2178 0 0 1 622.05078 419.6875 L 691.76172 419.6875 A 307.96641 307.96641 0 0 0 668.94531 360.61914 L 591.18359 360.61914 z M 627.58594 437.32617 A 241.2178 241.2178 0 0 1 635.92383 491.97266 L 702.60547 491.97266 A 307.96641 307.96641 0 0 0 696.04492 437.32617 L 627.58594 437.32617 z M 635.92773 509.61133 A 241.2178 241.2178 0 0 1 626.83203 566.48242 L 695.69922 566.48242 A 307.96641 307.96641 0 0 0 702.71875 509.61133 L 635.92773 509.61133 z M 621.11133 584.12109 A 241.2178 241.2178 0 0 1 591.43555 640.30469 L 669.31445 640.30469 A 307.96641 307.96641 0 0 0 691.25977 584.12109 L 621.11133 584.12109 z M 577.82422 657.94336 A 241.2178 241.2178 0 0 1 565.46289 671.35938 A 241.2178 241.2178 0 0 1 485.05859 724.37305 L 606.35156 724.37305 A 307.96641 307.96641 0 0 0 659.60742 657.94336 L 577.82422 657.94336 z M 394.89648 742.01172 L 394.89648 808.75977 A 307.96641 307.96641 0 0 0 585.97656 742.01172 L 394.89648 742.01172 z "
       transform="scale(0.26458333)" />
    <path
       id="path589-7-5-0-0-4"
       style="fill:#0000ff;fill-rule:evenodd;stroke-width:0.801252"
       d="M 394.89453 277.84961 L 394.89453 342.98047 L 553.50977 342.98047 A 223.74803 223.74803 0 0 0 394.89453 277.84961 z M 466.39844 360.61914 A 157.6063 157.6063 0 0 1 506.19922 389.20703 A 157.6063 157.6063 0 0 1 529.97266 419.6875 L 603.66211 419.6875 A 223.74803 223.74803 0 0 0 569.36133 360.61914 L 466.39844 360.61914 z M 539.07422 437.32617 A 157.6063 157.6063 0 0 1 552.10938 491.97266 L 618.83008 491.97266 A 223.74803 223.74803 0 0 0 609.71289 437.32617 L 539.07422 437.32617 z M 552.09375 509.61133 A 157.6063 157.6063 0 0 1 537.87695 566.48242 L 609.12695 566.48242 A 223.74803 223.74803 0 0 0 618.86328 509.61133 L 552.09375 509.61133 z M 528.24414 584.12109 A 157.6063 157.6063 0 0 1 506.19922 612.0957 A 157.6063 157.6063 0 0 1 466.92773 640.30469 L 570.3418 640.30469 A 223.74803 223.74803 0 0 0 602.93164 584.12109 L 528.24414 584.12109 z M 394.89453 657.94336 L 394.89453 724.37305 A 223.74803 223.74803 0 0 0 553.50977 659.4082 A 223.74803 223.74803 0 0 0 554.87305 657.94336 L 394.89453 657.94336 z "
       transform="scale(0.26458333)" />
  </g>
</svg>
